<svg width="120" height="36" viewBox="0 0 131 39" fill="currentcolor" xmlns="http://www.w3.org/2000/svg"><path d="M7.59 38.826c-2.062-.011-3.226-1.14-3.787-2.155-1.313-2.379-1.022-6.657.896-13.058-3.296-.671-4.873-3.717-4.256-7.675.735-4.721 3.438-9.074 7.24-11.945C10.147 2.133 13.23.895 16.6.41c3.1-.447 6.374-.257 9.464.546 3.541.92 6.275 2.838 7.905 5.541 1.396 2.316 1.932 5.137 1.511 7.945-.716 4.762-3.78 9.314-8.409 12.489-3.21 2.203-7.145 3.794-11.7 4.731-.847 1.83-3.668 7.164-7.78 7.164Zm-.533-14.844C4.727 31.637 5.303 34.5 5.875 35.535c.252.454.656.932 1.698.932 3.098 0 5.642-5.682 6.088-6.736a.33.33 0 0 1 .248-.199c1.149-.218 7.573-1.538 11.826-4.538 4.053-2.86 6.792-6.78 7.411-10.898.592-3.934-1.065-9.14-7.675-10.859-5.902-1.535-12.17-.524-16.358 2.634-3.32 2.505-5.69 6.306-6.332 10.429-.247 1.578-.256 4.6 2.632 5.06 1.256-4.092 4.032-10.327 4.321-10.966.338-.748.54-1.185.65-1.42a.506.506 0 0 1 .353-.277c2.026-.424 7.239-1.305 10.194-.022 2.312 1.005 3.001 2.58 3.17 3.724.4 2.699-1.676 5.814-3.91 7.706-3.272 2.77-8.435 4.27-13.134 3.877ZM7.8 21.67c3.913.18 8.209-1.117 10.857-3.357 1.692-1.432 3.352-3.869 3.102-5.566-.122-.819-.702-1.443-1.777-1.909-1.847-.802-5.564-.423-7.854-.008-.688 1.508-2.683 5.987-4.328 10.84ZM47.034 29.561H44.52a.169.169 0 0 1-.169-.168V8.927c0-.093.076-.169.17-.169h7.422c5.173 0 8.122 2.443 8.122 6.506 0 4.095-2.951 6.538-8.122 6.538h-4.57a.169.169 0 0 0-.17.168v7.423a.172.172 0 0 1-.17.168Zm4.844-10.105c3.648 0 5.404-1.487 5.404-4.194 0-2.675-1.758-4.161-5.404-4.161h-4.505a.169.169 0 0 0-.169.168v8.018c0 .093.076.169.17.169h4.504ZM65.261 8.925V29.39a.169.169 0 0 1-.168.168h-2.414a.169.169 0 0 1-.169-.168V8.925c0-.093.076-.168.169-.168h2.414c.093 0 .168.075.168.168ZM78.914 15.13h2.414c.093 0 .169.076.169.168v14.095a.168.168 0 0 1-.17.168h-2.413a.169.169 0 0 1-.168-.168v-1.672c0-.17-.224-.232-.313-.087-.852 1.386-2.512 2.323-4.43 2.323-3.779 0-5.172-2.477-5.172-5.844V15.3c0-.093.076-.169.17-.169h2.413c.093 0 .168.076.168.168v8.55c0 2.41 1.062 3.962 3.35 3.962 2.155 0 3.811-1.718 3.811-4.393v-8.12a.171.171 0 0 1 .171-.167ZM96.505 26.72c0 .76.431 1.123 1.128 1.123.27 0 .667-.066 1.022-.212.113-.047.239.03.239.152v1.144a.17.17 0 0 1-.05.122c-.488.47-1.081.808-2.17.808-1.348 0-2.343-.916-2.646-2.36a.168.168 0 0 0-.307-.054c-.92 1.465-2.82 2.512-4.97 2.512-2.817 0-4.641-1.518-4.641-3.994 0-2.74 2.353-3.863 5.834-4.557l3.777-.766a.168.168 0 0 0 .136-.164v-.423c0-1.981-1.16-3.203-3.182-3.203-2.029 0-3.15 1.154-3.608 2.764a.168.168 0 0 1-.185.122l-2.124-.286a.17.17 0 0 1-.144-.205c.621-2.615 2.755-4.509 6.092-4.509 3.648 0 5.801 1.85 5.801 5.514v6.472h-.002Zm-2.652-4.083a.168.168 0 0 0-.203-.165l-3.044.65c-2.288.494-3.747.924-3.747 2.675 0 1.22.829 2.147 2.487 2.147 2.554 0 4.51-1.916 4.51-4.822v-.485h-.003ZM103.147 29.561h-2.414a.169.169 0 0 1-.169-.168V15.298c0-.092.076-.168.169-.168h2.414c.093 0 .169.076.169.168V17c0 .17.223.232.312.087.867-1.413 2.606-2.352 4.495-2.352 3.78 0 5.305 2.51 5.305 5.877v8.78a.169.169 0 0 1-.169.168h-2.414a.168.168 0 0 1-.168-.168v-8.55c0-2.41-1.161-3.929-3.448-3.929-2.189 0-3.911 1.716-3.911 4.358v8.121a.172.172 0 0 1-.171.17ZM122.469 24.54c-1.159 0-2.222-.187-3.103-.56a.17.17 0 0 0-.155.011c-.467.298-.886.746-.886 1.375 0 .792.496 1.254 1.757 1.254h5.669c3.149 0 4.808 1.65 4.808 3.896 0 3.599-4.045 4.986-8.354 4.986-3.912 0-7.161-1.221-7.161-3.896 0-1.49.97-2.495 2.475-2.92.148-.04.167-.244.031-.31-.993-.486-1.445-1.335-1.445-2.284 0-1.173.782-2.027 1.94-2.593a.165.165 0 0 0 .033-.279c-1.061-.854-1.674-2.08-1.674-3.567 0-3.038 2.52-4.92 6.067-4.92 1.746 0 3.311.515 4.4 1.371a.17.17 0 0 0 .244-.034 4.432 4.432 0 0 1 3.403-1.829.17.17 0 0 1 .175.17v2.041c0 .091-.074.164-.165.166-.844.024-1.767.215-2.445.51a.169.169 0 0 0-.079.24c.374.66.601 1.43.601 2.285-.003 3.007-2.557 4.887-6.136 4.887Zm-.266 9.147c3.316 0 5.702-.792 5.702-2.873 0-1.32-1.094-1.784-2.784-1.784h-4.676c-1.492 0-2.784.494-2.784 2.046 0 1.819 1.857 2.611 4.542 2.611Zm.299-17.171c-2.022 0-3.283 1.123-3.283 3.17 0 1.98 1.259 3.103 3.283 3.103 2.054 0 3.315-1.123 3.315-3.104-.002-2.046-1.261-3.169-3.315-3.169Z" fill="currentcolor"></path></svg>
